<svg width="32" height="32" viewBox="0 0 32 32" fill="none" xmlns="http://www.w3.org/2000/svg">
<path d="M7.70743 25.7075C7.61452 25.8004 7.50422 25.8741 7.38283 25.9244C7.26143 25.9747 7.13133 26.0006 6.99993 26.0006C6.86854 26.0006 6.73843 25.9747 6.61703 25.9244C6.49564 25.8741 6.38534 25.8004 6.29243 25.7075C6.19952 25.6146 6.12582 25.5043 6.07554 25.3829C6.02526 25.2615 5.99937 25.1314 5.99937 25C5.99937 24.8686 6.02526 24.7385 6.07554 24.6171C6.12582 24.4957 6.19952 24.3854 6.29243 24.2925L14.5862 16L6.29243 7.70751C6.10479 7.51987 5.99937 7.26537 5.99937 7.00001C5.99937 6.73464 6.10479 6.48015 6.29243 6.29251C6.48007 6.10487 6.73457 5.99945 6.99993 5.99945C7.2653 5.99945 7.51979 6.10487 7.70743 6.29251L15.9999 14.5863L24.2924 6.29251C24.4801 6.10487 24.7346 5.99945 24.9999 5.99945C25.2653 5.99945 25.5198 6.10487 25.7074 6.29251C25.8951 6.48015 26.0005 6.73464 26.0005 7.00001C26.0005 7.26537 25.8951 7.51987 25.7074 7.70751L17.4137 16L25.7074 24.2925C25.8951 24.4801 26.0005 24.7346 26.0005 25C26.0005 25.2654 25.8951 25.5199 25.7074 25.7075C25.5198 25.8951 25.2653 26.0006 24.9999 26.0006C24.7346 26.0006 24.4801 25.8951 24.2924 25.7075L15.9999 17.4138L7.70743 25.7075Z" fill="#333232"/>
</svg>
